<?xml version="1.0" encoding="utf-8"?>
<!-- Generator: Adobe Illustrator 16.0.3, SVG Export Plug-In . SVG Version: 6.00 Build 0)  -->
<!DOCTYPE svg PUBLIC "-//W3C//DTD SVG 1.1//EN" "http://www.w3.org/Graphics/SVG/1.1/DTD/svg11.dtd">
<svg version="1.1" id="Layer_1" xmlns="http://www.w3.org/2000/svg" xmlns:xlink="http://www.w3.org/1999/xlink" x="0px" y="0px"
	 width="140px" height="117.896px" viewBox="-8.844 -7.448 140 117.896" enable-background="new -8.844 -7.448 140 117.896"
	 xml:space="preserve">
<g>
	<path d="M57.163,69.224c4.4,0.584,9.986,2.391,11.258-1.503c0.704-2.156,3.44-3.248,5.188-1.464c1.47,1.503,0.609,3.591-0.883,4.6
		C68.617,73.627,59.267,70.65,57.163,69.224L57.163,69.224z"/>
	<path d="M51.526,66.371c-3.134-2.414-11.161-1.397-10.238,3.595c0.691,3.738,6.187,2.886,8.451,1.923
		c10.61-4.522,15.963-13.229,18.304-24.028c0.977-4.52,1.273-9.021,1.534-13.546c-2.217,1.546-4.596,2.948-6.779,4.126
		c-0.151,2.74-0.336,5.477-0.757,8.183c-1.359,8.757-4.501,19.661-13.264,23.552c-2.429,1.078-5.292,1.042-5.524-1.02
		C42.916,66.217,48.43,65.428,51.526,66.371L51.526,66.371z M69.858,29.704c0.071-1.046,0.154-2.095,0.256-3.146
		c0.449-4.708,1.691-12.63,6.603-15.01c1.081-0.526,3.519-0.505,4.383,0.147c0,0-0.01-0.008,0,0
		c-0.682-1.271-2.98-1.808-4.505-1.686c-7.42,0.591-11.191,9.178-12.507,15.443c-0.497,2.367-0.767,4.77-0.947,7.186
		C65.631,31.771,67.901,30.734,69.858,29.704L69.858,29.704z"/>
	<g>
		<g>
			
				<linearGradient id="SVGID_2_" gradientUnits="userSpaceOnUse" x1="200.9534" y1="-35.4888" x2="223.4172" y2="-35.4888" gradientTransform="matrix(1 0 0 -1 -146 -2)">
				<stop  offset="0" style="stop-color:#AF782B"/>
				<stop  offset="1" style="stop-color:#DAA143"/>
			</linearGradient>
			<path id="SVGID_1_" fill="url(#SVGID_2_)" d="M55.955,35.102c-0.174,2.426-0.227,4.102-1.001,6.361
				c0,0,18.725-7.75,22.463-15.948C77.417,25.514,68.055,33.31,55.955,35.102L55.955,35.102z"/>
		</g>
		<g>
			<g>
				
					<linearGradient id="SVGID_5_" gradientUnits="userSpaceOnUse" x1="200.9534" y1="-35.4888" x2="223.4172" y2="-35.4888" gradientTransform="matrix(1 0 0 -1 -146 -2)">
					<stop  offset="0" style="stop-color:#AF782B"/>
					<stop  offset="1" style="stop-color:#DAA143"/>
				</linearGradient>
				<path id="SVGID_3_" fill="url(#SVGID_5_)" d="M55.955,35.102c-0.174,2.426-0.227,4.102-1.001,6.361
					c0,0,18.725-7.75,22.463-15.948C77.417,25.514,68.055,33.31,55.955,35.102L55.955,35.102z"/>
			</g>
			<g>
				<defs>
					<path id="SVGID_6_" d="M55.955,35.102c-0.174,2.426-0.227,4.102-1.001,6.361c0,0,18.725-7.75,22.463-15.948
						C77.417,25.514,68.055,33.31,55.955,35.102L55.955,35.102z"/>
				</defs>
				<clipPath id="SVGID_7_">
					<use xlink:href="#SVGID_6_"  overflow="visible"/>
				</clipPath>
				<g clip-path="url(#SVGID_7_)">
					<g>
						
							<linearGradient id="SVGID_8_" gradientUnits="userSpaceOnUse" x1="200.9534" y1="-35.4878" x2="223.4172" y2="-35.4878" gradientTransform="matrix(1 0 0 -1 -146 -2)">
							<stop  offset="0" style="stop-color:#AF782B"/>
							<stop  offset="1" style="stop-color:#DAA143"/>
						</linearGradient>
						<rect id="SVGID_4_" x="54.954" y="25.514" fill="url(#SVGID_8_)" width="22.463" height="15.948"/>
					</g>
				</g>
			</g>
		</g>
	</g>
	<path d="M61.156-7.448c13.475,0,25.677,5.462,34.506,14.292c8.831,8.831,14.295,21.031,14.295,34.508s-5.464,25.676-14.295,34.508
		c-8.83,8.83-21.03,14.293-34.506,14.293c-13.474,0-25.678-5.461-34.506-14.292c-8.833-8.833-14.295-21.032-14.295-34.509
		s5.463-25.677,14.294-34.508C35.478-1.986,47.679-7.448,61.156-7.448L61.156-7.448z M94.053,8.455
		C85.636,0.035,74.002-5.174,61.156-5.174c-12.849,0-24.481,5.208-32.899,13.628C19.838,16.873,14.63,28.506,14.63,41.354
		c0,12.846,5.208,24.481,13.627,32.899c8.418,8.42,20.051,13.628,32.899,13.628c12.847,0,24.48-5.208,32.897-13.628
		c8.419-8.418,13.627-20.053,13.627-32.898C107.681,28.505,102.474,16.873,94.053,8.455L94.053,8.455z"/>
	<path d="M-8.844,98.903h2.496V108h5.659v2.253h-8.155V98.903L-8.844,98.903z M9.781,105.503l-1.505-3.68l-1.498,3.648l-0.897,2.237
		l-1.043,2.547H2.29l4.865-11.431h2.301l4.865,11.431h-2.609l-1.039-2.547H7.116l0.855-2.206H9.781L9.781,105.503z M23.494,98.903
		h8.643v2.254h-6.146v2.447h5.417v2.257h-5.417v4.395h-2.497V98.903L23.494,98.903z M42.719,105.503l-1.508-3.68l-1.496,3.648
		l-0.897,2.237l-1.045,2.547h-2.546l4.864-11.431h2.303l4.865,11.431h-2.611l-1.036-2.547h-3.558l0.856-2.206H42.719L42.719,105.503
		z M56.48,108.064c0.551,0,0.984-0.101,1.299-0.299c0.311-0.202,0.471-0.513,0.471-0.934V106.8c0-0.378-0.149-0.678-0.439-0.899
		c-0.292-0.221-0.762-0.333-1.41-0.333h-2.886v2.5L56.48,108.064L56.48,108.064z M55.816,103.492c0.55,0,0.988-0.096,1.311-0.284
		c0.326-0.189,0.488-0.494,0.488-0.917v-0.032c0-0.378-0.141-0.666-0.421-0.866c-0.281-0.201-0.687-0.301-1.216-0.301h-2.465v2.4
		H55.816L55.816,103.492z M51.081,98.903h5.264c1.305,0,2.292,0.335,2.961,1.005c0.514,0.519,0.776,1.161,0.776,1.931v0.032
		c0,0.323-0.041,0.61-0.122,0.858c-0.079,0.249-0.186,0.473-0.319,0.674c-0.135,0.199-0.29,0.375-0.467,0.525
		c-0.176,0.152-0.368,0.283-0.571,0.392c0.654,0.249,1.17,0.587,1.548,1.014c0.377,0.426,0.565,1.02,0.565,1.776v0.031
		c0,0.519-0.1,0.975-0.3,1.36c-0.199,0.39-0.485,0.714-0.856,0.974c-0.374,0.262-0.822,0.453-1.343,0.586
		c-0.524,0.127-1.105,0.194-1.741,0.194h-5.391V98.904L51.081,98.903L51.081,98.903z M69.593,110.43c-1.526,0-2.725-0.42-3.6-1.264
		s-1.314-2.102-1.314-3.778v-6.485h2.499v6.419c0,0.932,0.215,1.63,0.647,2.1c0.432,0.47,1.031,0.706,1.801,0.706
		c0.767,0,1.367-0.228,1.799-0.682c0.433-0.454,0.646-1.136,0.646-2.044V98.9h2.5v6.404c0,0.864-0.119,1.615-0.353,2.255
		c-0.229,0.64-0.562,1.169-0.993,1.599c-0.432,0.427-0.958,0.744-1.573,0.955C71.035,110.327,70.349,110.43,69.593,110.43
		L69.593,110.43z M79.187,98.903h2.496V108h5.661v2.253h-8.157V98.903L79.187,98.903z M96.839,108.146
		c0.497,0,0.958-0.092,1.38-0.275c0.419-0.185,0.78-0.438,1.074-0.763c0.298-0.323,0.529-0.699,0.697-1.126
		c0.167-0.428,0.252-0.882,0.252-1.371v-0.03c0-0.485-0.083-0.945-0.252-1.378c-0.17-0.433-0.405-0.812-0.712-1.136
		c-0.311-0.321-0.673-0.581-1.094-0.769c-0.423-0.19-0.884-0.284-1.381-0.284c-0.506,0-0.969,0.092-1.385,0.275
		c-0.417,0.183-0.774,0.438-1.073,0.762c-0.297,0.322-0.528,0.697-0.695,1.125c-0.168,0.427-0.251,0.884-0.251,1.37v0.032
		c0,0.486,0.083,0.947,0.251,1.379c0.167,0.431,0.404,0.81,0.715,1.133c0.308,0.324,0.669,0.582,1.087,0.772
		C95.868,108.049,96.332,108.146,96.839,108.146L96.839,108.146z M96.806,110.448c-0.875,0-1.681-0.154-2.414-0.461
		c-0.736-0.31-1.369-0.726-1.904-1.25c-0.536-0.525-0.954-1.141-1.25-1.849c-0.298-0.709-0.446-1.467-0.446-2.278v-0.03
		c0-0.81,0.152-1.57,0.453-2.277c0.304-0.705,0.724-1.329,1.26-1.866c0.533-0.535,1.169-0.955,1.911-1.263
		c0.739-0.31,1.548-0.462,2.424-0.462c0.877,0,1.682,0.154,2.414,0.462c0.737,0.31,1.37,0.726,1.906,1.25
		c0.537,0.523,0.951,1.14,1.247,1.849c0.301,0.709,0.448,1.464,0.448,2.278v0.029c0,0.811-0.149,1.57-0.454,2.278
		c-0.303,0.705-0.72,1.329-1.255,1.864c-0.535,0.536-1.175,0.956-1.915,1.265C98.49,110.294,97.683,110.448,96.806,110.448
		L96.806,110.448z M111.2,110.417c-0.863,0-1.714-0.15-2.548-0.447c-0.833-0.298-1.59-0.754-2.267-1.371l1.475-1.767
		c0.52,0.421,1.05,0.758,1.597,1.007c0.548,0.248,1.143,0.372,1.791,0.372c0.519,0,0.921-0.096,1.208-0.284
		c0.286-0.189,0.429-0.452,0.429-0.787v-0.03c0-0.165-0.026-0.308-0.09-0.431c-0.059-0.121-0.17-0.24-0.339-0.351
		c-0.168-0.107-0.403-0.215-0.697-0.321c-0.301-0.11-0.689-0.223-1.164-0.343c-0.576-0.138-1.095-0.298-1.563-0.469
		c-0.463-0.172-0.861-0.387-1.184-0.641c-0.323-0.256-0.581-0.572-0.757-0.95c-0.179-0.378-0.269-0.846-0.269-1.409v-0.032
		c0-0.517,0.098-0.986,0.291-1.402c0.194-0.415,0.464-0.777,0.813-1.079s0.77-0.535,1.252-0.695c0.486-0.163,1.02-0.244,1.602-0.244
		c0.834,0,1.599,0.124,2.294,0.373c0.697,0.251,1.338,0.605,1.923,1.071l-1.298,1.883c-0.506-0.347-1.004-0.62-1.491-0.819
		c-0.486-0.2-0.976-0.301-1.46-0.301c-0.487,0-0.848,0.095-1.093,0.285c-0.244,0.187-0.363,0.423-0.363,0.702v0.032
		c0,0.183,0.032,0.346,0.105,0.478c0.068,0.136,0.197,0.26,0.382,0.366c0.187,0.108,0.436,0.213,0.757,0.31
		c0.319,0.098,0.723,0.212,1.21,0.34c0.573,0.151,1.088,0.319,1.537,0.51c0.45,0.188,0.832,0.417,1.138,0.682
		c0.311,0.264,0.546,0.577,0.7,0.931c0.154,0.354,0.235,0.786,0.235,1.281v0.03c0,0.563-0.104,1.065-0.309,1.502
		c-0.205,0.438-0.489,0.807-0.853,1.104c-0.364,0.299-0.8,0.524-1.31,0.681C112.379,110.336,111.817,110.417,111.2,110.417
		L111.2,110.417z M125.14,108.146c0.499,0,0.957-0.092,1.38-0.275c0.421-0.185,0.78-0.438,1.076-0.763
		c0.299-0.323,0.531-0.699,0.695-1.126c0.169-0.428,0.251-0.882,0.251-1.371v-0.03c0-0.485-0.08-0.945-0.251-1.378
		c-0.167-0.433-0.404-0.812-0.712-1.136c-0.308-0.321-0.673-0.581-1.095-0.769c-0.423-0.19-0.882-0.284-1.379-0.284
		c-0.506,0-0.971,0.092-1.385,0.275c-0.416,0.183-0.774,0.438-1.072,0.762c-0.297,0.322-0.529,0.697-0.697,1.125
		c-0.166,0.427-0.252,0.884-0.252,1.37v0.032c0,0.486,0.086,0.947,0.252,1.379c0.168,0.431,0.405,0.81,0.714,1.133
		c0.311,0.324,0.67,0.582,1.088,0.772C124.17,108.049,124.631,108.146,125.14,108.146L125.14,108.146z M125.107,110.448
		c-0.874,0-1.681-0.154-2.413-0.461c-0.737-0.31-1.37-0.726-1.905-1.25c-0.535-0.525-0.951-1.141-1.248-1.849
		c-0.301-0.709-0.45-1.467-0.45-2.278v-0.03c0-0.81,0.152-1.57,0.455-2.277c0.302-0.705,0.723-1.329,1.258-1.866
		c0.535-0.535,1.172-0.955,1.912-1.263c0.74-0.31,1.55-0.462,2.424-0.462s1.682,0.154,2.417,0.462
		c0.734,0.31,1.367,0.726,1.904,1.25c0.535,0.523,0.951,1.14,1.248,1.849c0.298,0.709,0.448,1.464,0.448,2.278v0.029
		c0,0.811-0.152,1.57-0.453,2.278c-0.307,0.705-0.722,1.329-1.26,1.864c-0.535,0.536-1.17,0.956-1.912,1.265
		C126.791,110.294,125.984,110.448,125.107,110.448L125.107,110.448z"/>
</g>
</svg>
